<?xml version="1.0" standalone="no"?>
<!DOCTYPE svg PUBLIC "-//W3C//DTD SVG 20010904//EN"
 "http://www.w3.org/TR/2001/REC-SVG-20010904/DTD/svg10.dtd">
<svg version="1.0" xmlns="http://www.w3.org/2000/svg"
 width="864.000000pt" height="864.000000pt" viewBox="0 0 864.000000 864.000000"
 preserveAspectRatio="xMidYMid meet">
<metadata>
Created by potrace 1.11, written by Peter Selinger 2001-2013
</metadata>
<g transform="translate(0.000000,864.000000) scale(0.100000,-0.100000)"
fill="#000000" stroke="none">
<path d="M3893 6060 c10 -86 52 -163 126 -233 36 -34 88 -76 114 -92 26 -17
47 -32 47 -35 0 -3 -27 -22 -59 -43 -125 -80 -215 -205 -228 -316 l-6 -51 42
0 c38 0 41 2 41 28 0 56 32 123 87 183 52 56 178 149 202 149 6 0 30 -12 53
-27 l42 -28 -70 -5 c-68 -5 -110 -24 -144 -65 -11 -13 5 -15 152 -15 159 0
165 -1 186 -23 12 -13 22 -26 22 -30 0 -4 -100 -8 -221 -9 l-222 -3 -18 -34
c-10 -19 -16 -38 -13 -43 3 -4 122 -8 265 -8 l259 0 0 -35 c0 -34 1 -35 41
-35 l42 0 -6 52 c-17 137 -112 245 -342 388 -218 136 -299 221 -312 329 l-6
51 -40 0 -40 0 6 -50z"/>
<path d="M4548 6078 l-3 -33 -250 -3 c-137 -1 -256 -4 -263 -7 -10 -3 -8 -14
8 -45 l20 -40 221 -2 221 -3 -22 -27 -21 -28 -167 -2 -167 -3 50 -37 c46 -35
55 -38 120 -38 l70 0 -32 -21 c-36 -23 -35 -32 7 -54 28 -14 30 -13 88 30 121
91 186 188 199 294 l6 51 -41 0 c-39 0 -41 -2 -44 -32z"/>
<path d="M1420 5285 l0 -65 1070 0 1070 0 0 65 0 65 -1070 0 -1070 0 0 -65z"/>
<path d="M4960 5285 l0 -65 1070 0 1070 0 0 65 0 65 -1070 0 -1070 0 0 -65z"/>
<path d="M480 4045 l0 -945 3780 0 3780 0 0 945 0 945 -3780 0 -3780 0 0 -945z
m7440 0 l0 -825 -3660 0 -3660 0 0 825 0 825 3660 0 3660 0 0 -825z"/>
<path d="M3841 4367 c-5 -12 -50 -120 -100 -241 -82 -198 -91 -224 -91 -282
l0 -64 150 0 150 0 0 -75 0 -75 85 0 85 0 0 75 0 75 35 0 35 0 0 65 0 65 -35
0 -35 0 0 90 0 90 -74 0 -74 0 -6 -37 c-3 -21 -8 -62 -12 -90 l-6 -53 -59 0
c-32 0 -59 4 -59 8 0 5 36 96 80 203 74 180 88 219 75 219 -2 0 -34 11 -70 25
l-66 24 -8 -22z"/>
<path d="M4550 4381 c-83 -17 -143 -73 -181 -168 -21 -52 -24 -74 -24 -213 0
-140 3 -161 24 -214 44 -111 131 -176 234 -176 181 0 279 162 264 434 -11 198
-78 306 -207 335 -50 12 -60 12 -110 2z m104 -144 c32 -32 46 -106 46 -245 -1
-183 -23 -244 -93 -250 -45 -4 -71 20 -88 80 -16 57 -16 291 0 347 24 84 87
115 135 68z"/>
<path d="M4572 4060 c-54 -22 -54 -102 0 -125 51 -21 98 7 98 59 0 37 -7 49
-37 65 -25 13 -30 13 -61 1z"/>
<path d="M5211 4367 c-5 -12 -50 -120 -100 -241 -82 -198 -91 -224 -91 -282
l0 -64 150 0 150 0 0 -75 0 -75 85 0 85 0 0 75 0 75 35 0 35 0 0 65 0 65 -35
0 -35 0 0 90 0 90 -74 0 -74 0 -6 -37 c-3 -21 -8 -62 -12 -90 l-6 -53 -59 0
c-32 0 -59 4 -59 8 0 5 36 96 80 203 74 180 88 219 75 219 -2 0 -34 11 -70 25
l-66 24 -8 -22z"/>
<path d="M3144 4308 c3 -35 9 -141 12 -235 l7 -173 68 0 c56 0 69 3 73 18 2 9
8 115 12 235 l7 217 -93 0 -92 0 6 -62z"/>
<path d="M3196 3794 c-41 -21 -55 -43 -56 -87 0 -29 7 -45 29 -68 86 -86 217
41 134 130 -35 36 -70 45 -107 25z"/>
<path d="M1420 2750 l0 -60 2840 0 2840 0 0 60 0 60 -2840 0 -2840 0 0 -60z"/>
</g>
</svg>
